<svg xmlns="http://www.w3.org/2000/svg" width="327.377" height="356.53" viewBox="0 0 327.377 356.53">
  <defs>
    <style>
      .cls-1 {
        fill: #fff;
        fill-rule: evenodd;
      }
    </style>
  </defs>
  <path id="Ic03.svg" class="cls-1" d="M1123.86,1151.94a22.361,22.361,0,0,1-5.24,18.86c-4.14,4.61-11.64,6.73-24.04,6.73-1.45,0-2.96-.02-4.54-0.08a250.473,250.473,0,0,1-28.41-3.02c-1.33-.21-2.71-0.47-4.11-0.73a53.191,53.191,0,0,0-8.93-1.18H872.408a53.185,53.185,0,0,0-8.927,1.18c-1.4.26-2.779,0.52-4.109,0.73a250.732,250.732,0,0,1-28.409,3.02c-15.14.55-23.965-1.51-28.587-6.65a22.379,22.379,0,0,1-5.237-18.86c1.157-7.25,5.852-17.47,20.025-29.16-4.852-34.32-9.594-89.97,3.258-126.02H816.35c-5.3,0-9.7-2.175-12.368-6.124-4.285-6.331-3.555-16.374,2.231-30.7a15.445,15.445,0,0,0,1.03-8.089c-1.031-6.761-1.146-21.668,5.8-29.687a14.787,14.787,0,0,1,11.284-5.289H824.4c13.992,0.07,258.211.07,272.2,0h0.08a14.792,14.792,0,0,1,11.28,5.289c6.94,8.019,6.83,22.925,5.8,29.687a15.307,15.307,0,0,0,1.03,8.089c5.78,14.328,6.51,24.372,2.23,30.7-2.68,3.949-7.07,6.124-12.37,6.124h-3.39c9.45,26.73,10.05,68.01,1.86,125.43C1117.86,1134.13,1122.68,1144.57,1123.86,1151.94Zm-20.09-171.159c0.06-2.113-.59-6.817-3.84-14.878a31.365,31.365,0,0,1-2.01-16.462c1.05-6.861-.33-14.513-1.87-16.592-19.15.067-251.953,0.067-271.1,0-1.536,2.08-2.914,9.732-1.868,16.592a31.387,31.387,0,0,1-2.008,16.463c-3.255,8.06-3.9,12.764-3.838,14.877H1103.77Zm4.27,173.669c-0.53-3.37-3.45-11.33-17.86-22.09a8.99,8.99,0,0,1-.85-0.64,141,141,0,0,0-12.72-8.21,8,8,0,1,1,8.03-13.83c1.28,0.75,2.51,1.48,3.72,2.22,7.14-54.42,5.69-93.08-4.32-115.14H837.659c-13.661,29.9-9.682,83.99-5.727,115.57,1.425-.88,2.892-1.76,4.432-2.65a7.994,7.994,0,1,1,8.023,13.83c-26.338,15.21-30.755,26.7-31.431,30.94a6.628,6.628,0,0,0,1.212,5.52c2.083,1.26,13.393,3.32,42.692-1.32,1.192-.19,2.425-0.42,3.679-0.66a65.616,65.616,0,0,1,11.869-1.45H1048.59a64.769,64.769,0,0,1,11.87,1.46c1.26,0.23,2.49.46,3.68,0.65,29.3,4.64,40.61,2.58,42.69,1.32A6.621,6.621,0,0,0,1108.04,1154.45ZM1024.91,892.9v4a8.01,8.01,0,0,1-16.02,0v-4A8.01,8.01,0,0,1,1024.91,892.9Zm-24.02-23.967v3.994a8.011,8.011,0,0,1-16.021,0v-3.994A8.011,8.011,0,0,1,1000.89,868.933Zm-32.038,15.978v4a8.008,8.008,0,0,1-16.016,0v-4A8.008,8.008,0,0,1,968.852,884.911Zm108.108,22.9a8.016,8.016,0,0,1-10.94-2.924c-26.08-45.06-50.98-67.907-74.013-67.907a27.465,27.465,0,0,0-23.466,13.212,8.359,8.359,0,0,1-.482.85,8.021,8.021,0,0,1-10.877,2.484c-0.152-.092-0.3-0.187-0.443-0.288a40.356,40.356,0,0,0-22.939-7.128c-15.828,0-31.111,17.032-38.027,33.856a8.018,8.018,0,0,1-11.306,3.949,18.154,18.154,0,0,0-8.874-2.424c-10.4,0-18.857,8.7-18.857,19.4a8.008,8.008,0,0,1-16.016,0c0-19.509,15.644-35.381,34.873-35.381a32.905,32.905,0,0,1,8.749,1.183c9.92-18.735,28.23-36.564,49.458-36.564a56.273,56.273,0,0,1,25.312,5.981A43.825,43.825,0,0,1,992.007,821c29.583,0,58.333,24.826,87.893,75.9A7.983,7.983,0,0,1,1076.96,907.807Z" transform="translate(-796.813 -821)"/>
</svg>

