<svg fill="#FFFFFF" xmlns="http://www.w3.org/2000/svg"  viewBox="0 0 64 64" width="64px" height="64px"><path d="M 50.275391 1.0722656 C 49.889891 1.01625 49.489891 1.1901719 49.275391 1.5449219 L 48.238281 3.2558594 C 47.954281 3.7248594 48.102172 4.3409062 48.576172 4.6289062 C 49.048172 4.9149063 49.663219 4.7640156 49.949219 4.2910156 L 50.986328 2.5800781 C 51.084328 2.4180781 51.130859 2.2395 51.130859 2.0625 C 51.130859 1.7255 50.959437 1.3960312 50.648438 1.2070312 C 50.530438 1.1355313 50.403891 1.0909375 50.275391 1.0722656 z M 32 3 C 15.995562 3 3 15.995562 3 32 C 3 39.388049 5.8140211 46.1024 10.367188 51.222656 C 9.1848805 55.248444 4.5039063 58.130859 4.5039062 58.130859 A 1.0001 1.0001 0 0 0 5 60 L 6 60 C 9.7295549 60 14.125504 59.96123 18.556641 57.628906 C 22.582581 59.744879 27.139115 61 32 61 C 48.004438 61 61 48.004438 61 32 C 61 15.995562 48.004438 3 32 3 z M 54.605469 4.3496094 C 54.350344 4.3701094 54.102828 4.4872656 53.923828 4.6972656 L 52.626953 6.2207031 C 52.268953 6.6407031 52.319234 7.2708594 52.740234 7.6308594 C 53.161234 7.9888594 53.792391 7.9375781 54.150391 7.5175781 L 55.447266 5.9941406 C 55.607266 5.8061406 55.685547 5.5747031 55.685547 5.3457031 C 55.685547 5.0627031 55.564984 4.7819844 55.333984 4.5839844 C 55.123484 4.4049844 54.860594 4.3291094 54.605469 4.3496094 z M 32 5 C 46.923562 5 59 17.076438 59 32 C 59 46.923562 46.923562 59 32 59 C 27.288968 59 22.869084 57.793448 19.015625 55.675781 A 1.0001 1.0001 0 0 0 18.042969 55.681641 C 14.694214 57.571196 11.380252 57.827808 8.1601562 57.892578 C 9.8813322 56.438977 11.789962 54.344674 12.488281 51.300781 A 1.0001 1.0001 0 0 0 12.246094 50.396484 C 7.7521138 45.573583 5 39.115886 5 32 C 5 17.076438 17.076438 5 32 5 z M 58.734375 8.3183594 C 58.47925 8.2979844 58.216359 8.3761875 58.005859 8.5546875 L 56.482422 9.8515625 C 56.061422 10.210562 56.012141 10.840719 56.369141 11.261719 C 56.727141 11.681719 57.358297 11.730047 57.779297 11.373047 L 59.302734 10.076172 C 59.535734 9.8771719 59.654297 9.5964531 59.654297 9.3144531 C 59.654297 9.0854531 59.575062 8.8559688 59.414062 8.6679688 C 59.235063 8.4579687 58.9895 8.3387344 58.734375 8.3183594 z M 32.099609 9 C 25.94976 8.9825324 20.023236 11.419033 15.677734 15.794922 C 11.043489 20.462627 8.6277722 26.914547 9.046875 33.5 C 9.7149448 43.982832 17.721893 52.866122 28.115234 54.666016 C 29.408278 54.889711 30.706872 55.001953 32.001953 55.001953 C 34.178427 55.001953 36.348787 54.685603 38.484375 54.058594 C 40.327691 53.517424 41.398154 51.55663 40.855469 49.712891 C 40.313152 47.871003 38.353374 46.797908 36.509766 47.34375 L 36.511719 47.341797 C 34.127267 48.041551 31.711178 48.185419 29.308594 47.767578 C 22.088544 46.519274 16.494131 40.313372 16.03125 33.054688 C 15.738402 28.466107 17.421965 23.970698 20.644531 20.724609 C 23.865504 17.480119 28.357409 15.765686 32.933594 16.027344 C 36.000111 16.200962 38.708008 17.449884 41.085938 19.136719 C 40.158465 19.259592 39.43093 19.745334 38.880859 20.451172 C 36.748032 18.978759 34.253513 18 31.5 18 C 24.04295 18 18 24.310516 18 32 C 18 39.689484 24.04295 46 31.5 46 C 34.106114 46 36.45925 45.091002 38.519531 43.759766 C 39.45217 46.21001 41.734337 48 44.5 48 C 47.369206 48 50.064621 46.508336 51.568359 44.082031 A 1.0001 1.0001 0 0 0 51.570312 44.082031 C 54.184942 39.856633 55.342928 34.967337 54.914062 29.978516 C 53.942342 18.677185 44.66741 9.6781821 33.332031 9.0371094 C 32.920457 9.0139865 32.509599 9.0011645 32.099609 9 z M 32.091797 11.001953 C 32.466362 11.003034 32.842699 11.014029 33.21875 11.035156 C 43.561371 11.620084 52.033596 19.841721 52.919922 30.150391 C 53.313006 34.72298 52.25986 39.163091 49.869141 43.027344 C 48.738879 44.851039 46.670794 46 44.5 46 C 42.240975 46 40.382979 44.333557 40.056641 42.171875 A 1.0001 1.0001 0 0 0 38.445312 41.539062 C 36.505941 43.08097 34.110348 44 31.5 44 C 25.17105 44 20 38.646516 20 32 C 20 25.353484 25.17105 20 31.5 20 C 34.137319 20 36.555359 20.936346 38.505859 22.507812 A 1.0001 1.0001 0 0 0 40.083984 22.039062 C 40.280784 21.434779 40.827237 21 41.5 21 C 42.340812 21 43 21.659188 43 22.5 L 43 41.5 C 43 42.320455 43.679545 43 44.5 43 C 45.644355 43 46.715296 42.422379 47.314453 41.449219 C 49.359665 38.145984 50.263548 34.315469 49.927734 30.408203 C 49.169116 21.568605 41.91497 14.531384 33.046875 14.029297 C 27.89906 13.734954 22.851637 15.662896 19.224609 19.316406 C 15.597176 22.970318 13.706004 28.024221 14.035156 33.181641 C 14.558275 41.384956 20.824847 48.330586 28.966797 49.738281 C 31.670213 50.208441 34.410624 50.043965 37.076172 49.261719 A 1.0001 1.0001 0 0 0 37.078125 49.261719 C 37.881638 49.023821 38.700724 49.470843 38.9375 50.277344 A 1.0001 1.0001 0 0 0 38.9375 50.279297 C 39.174814 51.085557 38.728559 51.901842 37.921875 52.138672 C 35.963463 52.713662 33.985479 53.001953 32.001953 53.001953 C 30.821034 53.001953 29.637988 52.899617 28.457031 52.695312 C 18.986325 51.055159 11.650899 42.912215 11.042969 33.373047 C 10.660072 27.3565 12.867902 21.463419 17.097656 17.203125 C 21.06403 13.209014 26.473319 10.985735 32.091797 11.001953 z M 61.794922 12.878906 C 61.666422 12.897578 61.539875 12.942172 61.421875 13.013672 L 59.710938 14.048828 C 59.237938 14.335828 59.088094 14.951875 59.371094 15.421875 C 59.657094 15.894875 60.272141 16.045766 60.744141 15.759766 L 62.455078 14.724609 C 62.765078 14.536609 62.9375 14.205187 62.9375 13.867188 C 62.9375 13.690188 62.891922 13.513562 62.794922 13.351562 C 62.580422 12.996812 62.180422 12.822891 61.794922 12.878906 z M 31.5 23 C 26.785502 23 23 27.080574 23 32 C 23 36.919426 26.785502 41 31.5 41 C 36.214498 41 40 36.919426 40 32 C 40 27.080574 36.214498 23 31.5 23 z M 45 23.103516 C 46.52121 25.311102 47.694608 27.77065 47.935547 30.578125 C 48.235733 34.070859 47.434069 37.455719 45.613281 40.396484 A 1.0001 1.0001 0 0 0 45.611328 40.400391 C 45.491915 40.594814 45.219337 40.623826 45 40.730469 L 45 23.103516 z M 31.5 25 C 35.057502 25 38 28.097426 38 32 C 38 35.902574 35.057502 39 31.5 39 C 27.942498 39 25 35.902574 25 32 C 25 28.097426 27.942498 25 31.5 25 z"/></svg>